<mxfile host="app.diagrams.net" modified="2024-01-15T03:11:06.306Z" agent="Mozilla/5.0 (Windows NT 10.0; Win64; x64) AppleWebKit/537.36 (KHTML, like Gecko) Chrome/120.0.0.0 Safari/537.36" version="22.1.18" etag="E6qSt2TogTTDMpHRwAnd" type="github">
  <diagram name="Page-1" id="6zoFAdENDTB75AbUkwx0">
    <mxGraphModel>
      <root>
        <mxCell id="0" />
        <mxCell id="1" parent="0" />
      </root>
    </mxGraphModel>
  </diagram>
</mxfile>
